<svg xmlns="http://www.w3.org/2000/svg" width="102.124" height="79.43" viewBox="0 0 102.124 79.43">
  <path id="tachometer-alt-solid" d="M51.062,32A51.059,51.059,0,0,0,6.925,108.735a5.61,5.61,0,0,0,4.865,2.695H90.334a5.61,5.61,0,0,0,4.865-2.695A51.059,51.059,0,0,0,51.062,32Zm0,11.347a5.6,5.6,0,0,1,5.376,4.193,9.556,9.556,0,0,0-.612,1.183l-1.635,4.906a5.526,5.526,0,0,1-3.128,1.066,5.674,5.674,0,0,1,0-11.347ZM17.021,94.409a5.674,5.674,0,1,1,5.674-5.674A5.674,5.674,0,0,1,17.021,94.409Zm8.51-28.368A5.674,5.674,0,1,1,31.2,60.368,5.674,5.674,0,0,1,25.531,66.041ZM69.283,53.2,58.409,85.826a11.135,11.135,0,0,1,2.425,14.257H41.289a11.23,11.23,0,0,1,9.046-16.948L61.21,50.51A4.255,4.255,0,0,1,69.283,53.2Zm2.6,10.141,2.752-8.253a5.593,5.593,0,0,1,1.959-.4,5.674,5.674,0,0,1,0,11.347,5.588,5.588,0,0,1-4.711-2.7ZM85.1,94.409a5.674,5.674,0,1,1,5.674-5.674A5.674,5.674,0,0,1,85.1,94.409Z" transform="translate(0 -32)" fill="#f06"/>
</svg>
