<svg id="undraw_fitness_tracker_3033_1_" data-name="undraw_fitness_tracker_3033 (1)" xmlns="http://www.w3.org/2000/svg" width="674.027" height="482" viewBox="0 0 674.027 482">
  <ellipse id="Elipse_2" data-name="Elipse 2" cx="337.014" cy="21.184" rx="337.014" ry="21.184" transform="translate(0 439.633)" fill="#f06" opacity="0.1"/>
  <path id="Caminho_26" data-name="Caminho 26" d="M1026.526,757.43a23.744,23.744,0,0,1-.514,4.982c-.064.308-.135.642-.205.9-1.823,7.312-6.965,12.659-13.1,13h-.642c-6.49,0-11.978-5.6-13.789-13.307-.051-.206-.1-.411-.141-.642a23.76,23.76,0,0,1-.514-4.981c0-10.444,6.464-18.9,14.443-18.9S1026.526,747,1026.526,757.43Z" transform="translate(-405.362 -312.302)" fill="#3f3d56"/>
  <path id="Caminho_27" data-name="Caminho 27" d="M1026.541,757.448a23.766,23.766,0,0,1-.514,4.981c-.064.308-.135.642-.205.905h-.642a29.39,29.39,0,0,1-4.725-.642,28.829,28.829,0,0,1-4.211.963,29.434,29.434,0,0,1-3.3.308h-1.117a29.789,29.789,0,0,1-3.957-.263,29,29,0,0,1-6.2-1.54,29.275,29.275,0,0,1-3.351.9c-.051-.205-.1-.411-.141-.642a23.757,23.757,0,0,1-.513-4.981c0-10.444,6.464-18.9,14.443-18.9S1026.541,747.016,1026.541,757.448Z" transform="translate(-405.376 -312.32)" opacity="0.1"/>
  <path id="Caminho_28" data-name="Caminho 28" d="M1038.028,689.418a29.228,29.228,0,0,0-3.146-13.224l-16.985,5.283,14.912-8.769a29.342,29.342,0,0,0-22.057-12.575,29.955,29.955,0,0,0-2.292-3.03L984.068,664.7l20.009-11.76a29.362,29.362,0,0,0-46.219,15.65l20.895,24.06-22.667-16.4a29.362,29.362,0,0,0,26.274,51.81,29.53,29.53,0,0,0,18.8.514,29.362,29.362,0,0,0,35.7-28.662c0-.642,0-1.284-.064-1.926A29.332,29.332,0,0,0,1038.028,689.418Z" transform="translate(-386.051 -279.5)" fill="#f06"/>
  <path id="Caminho_29" data-name="Caminho 29" d="M1037.5,717.875a78.1,78.1,0,0,0-27.179-.347c-10.2,1.688-20.625,5.4-30.6,2.683-5.854-1.592-10.913-5.277-16.632-7.318a31.514,31.514,0,0,0-17.172-1.034,29.375,29.375,0,0,0,36.391,39.2,29.529,29.529,0,0,0,18.8.514,29.362,29.362,0,0,0,35.7-28.662,19.259,19.259,0,0,0-.064-1.926A28.963,28.963,0,0,0,1037.5,717.875Z" transform="translate(-386.035 -302.507)" opacity="0.1"/>
  <rect id="Retângulo_8" data-name="Retângulo 8" width="6.618" height="54.577" rx="2.29" transform="translate(443.304 110.386)" fill="#3f3d56"/>
  <rect id="Retângulo_9" data-name="Retângulo 9" width="3.717" height="17.968" rx="1.5" transform="translate(223.238 67.627)" fill="#3f3d56"/>
  <rect id="Retângulo_10" data-name="Retângulo 10" width="4.185" height="31.275" rx="1.69" transform="translate(223.103 100.526)" fill="#3f3d56"/>
  <rect id="Retângulo_11" data-name="Retângulo 11" width="3.986" height="31.544" rx="1.61" transform="translate(223.167 142.74)" fill="#3f3d56"/>
  <rect id="Retângulo_12" data-name="Retângulo 12" width="221.53" height="450.231" rx="35.69" transform="translate(225.343 8.255)" fill="#3f3d56"/>
  <rect id="Retângulo_13" data-name="Retângulo 13" width="30.935" height="6.285" rx="2.54" transform="translate(314.739 21.697)" fill="#e6e8ec"/>
  <circle id="Elipse_3" data-name="Elipse 3" cx="3.563" cy="3.563" r="3.563" transform="translate(350.353 21.274)" fill="#e6e8ec"/>
  <path id="Caminho_30" data-name="Caminho 30" d="M641.521,123.3V514.873a17.6,17.6,0,0,1-17.6,17.589H464.945a17.6,17.6,0,0,1-17.6-17.589V123.3a17.6,17.6,0,0,1,17.6-17.6h23.79v3.056a14.5,14.5,0,0,0,14.488,14.469h80.883A14.488,14.488,0,0,0,598.6,108.736V105.7h25.363a17.6,17.6,0,0,1,17.563,17.6Z" transform="translate(-208.327 -85.723)" fill="#fff"/>
  <path id="Caminho_31" data-name="Caminho 31" d="M642.914,342.657V475.813h-1.393v.135H447.35V313.27q1.868-2.131,3.787-4.423c27.269-32.565,64.334-41.135,93.022-42.034,19.656-.642,39.222,3.422,57.9,11.491,9.866,4.262,24.027,8.936,39.459,9.4v50.34C642.465,340.732,642.914,342.657,642.914,342.657Z" transform="translate(-208.327 -143.389)" fill="#f06" opacity="0.2"/>
  <path id="Caminho_32" data-name="Caminho 32" d="M642.914,372.982V506.137H447.35V418.912c6.965-1.752,16.69-8.493,29.169-27.115,14.925-22.281,35.2-28.142,50.9-28.758,10.752-.424,21.46,2.337,31.679,7.864,11.5,6.207,33.656,13.692,50.494-8.037,18.616-24.027,28.515-4.211,31.93,5.5C642.465,371.056,642.914,372.982,642.914,372.982Z" transform="translate(-208.327 -173.713)" fill="#f06" opacity="0.2"/>
  <rect id="Retângulo_14" data-name="Retângulo 14" width="155.347" height="48.787" rx="12" transform="translate(258.698 308.037)" fill="#736e9e"/>
  <path id="Caminho_33" data-name="Caminho 33" d="M185.227,746.106l12.287-7.247a29.528,29.528,0,0,0-6.285-7.517l-23.18,7.234,18.167-10.682A29.529,29.529,0,0,0,142.5,753.8c0,16.311,13.217,16.876,29.529,16.876s29.529-.565,29.529-16.876a29.366,29.366,0,0,0-2.536-11.978Z" transform="translate(-99.17 -307.212)" fill="#f06"/>
  <path id="Caminho_34" data-name="Caminho 34" d="M188.342,772.527a22.993,22.993,0,0,0-4.352-3.422c-2.234-1.483-4.538-2.992-7.17-3.5-2.311-.443-4.693-.071-7.061-.2a16.478,16.478,0,0,1-10.791-4.949c-1.675-1.733-3-3.852-5.013-5.193a11.028,11.028,0,0,0-7.517-1.38,21.6,21.6,0,0,0-2.221.456,29.466,29.466,0,0,0-1.746,10.021c0,16.311,13.217,16.876,29.529,16.876,7.915,0,15.1-.135,20.4-2.138l-.886-1.656a23.166,23.166,0,0,0-3.171-4.917Z" transform="translate(-99.159 -317.771)" opacity="0.1"/>
  <path id="Caminho_35" data-name="Caminho 35" d="M301.751,653.834a7.659,7.659,0,0,0-2.105,3.03c-1.1,3.428,1.971,6.792,2.266,10.38.231,2.85-1.284,5.508-2.144,8.242a17.788,17.788,0,0,0,6.111,18.873,5.089,5.089,0,0,0,2.041,1.053,4.6,4.6,0,0,0,3.486-1.027,9.347,9.347,0,0,0,3.267-4.314,18.721,18.721,0,0,0,.854-5.245l.456-6.869c.475-7.17.905-14.565-.841-21.607-.571-2.311-1.63-7.62-4.3-7.941S303.523,652.1,301.751,653.834Z" transform="translate(-155.237 -280.044)" fill="#3f3d56"/>
  <path id="Caminho_36" data-name="Caminho 36" d="M358.534,594.278a225.415,225.415,0,0,0-6.952,34.375,9.625,9.625,0,0,1-1.406,4.68c-1.971,2.651-5.919,2.484-9.192,2.054a5.189,5.189,0,0,1-2.24-.642c-1.233-.834-1.5-2.5-1.65-3.986q-3.364-32.79-4.494-65.753c-.032-.841,27.4-.918,29.754,1.284s.526,10.438,0,13.243A139.345,139.345,0,0,1,358.534,594.278Z" transform="translate(-167.239 -249.991)" fill="#fbbebe"/>
  <path id="Caminho_37" data-name="Caminho 37" d="M358.534,594.278a225.415,225.415,0,0,0-6.952,34.375,9.625,9.625,0,0,1-1.406,4.68c-1.971,2.651-5.919,2.484-9.192,2.054a5.189,5.189,0,0,1-2.24-.642c-1.233-.834-1.5-2.5-1.65-3.986q-3.364-32.79-4.494-65.753c-.032-.841,27.4-.918,29.754,1.284s.526,10.438,0,13.243A139.345,139.345,0,0,1,358.534,594.278Z" transform="translate(-167.239 -249.991)" opacity="0.05"/>
  <path id="Caminho_38" data-name="Caminho 38" d="M284,552.141l11.112,24.438c3.7,8.127,7.421,16.344,9.186,25.093a80.14,80.14,0,0,1,1.355,11.073,41.732,41.732,0,0,1-.3,9.558c-.4,2.349-1.149,4.635-1.476,7-1.284,9.417,4.051,18.276,7.7,27.038a81.526,81.526,0,0,1,5.957,23.6c.334,3.46.52,7.132,2.5,9.988,3.614-1.085,7.145-2.022,10.913-1.6.674-5.527-2.818-10.618-4.1-16.048-2.356-9.95,2.85-20.407,1.078-30.479-.963-5.456-3.948-10.592-3.7-16.125.456-10.091,2.35-20.285.424-30.171-2.17-11.176-8.409-21.338-9.789-32.636-1.059-8.679.642-18.276-4.192-25.568C300.106,536.684,289.187,542.917,284,552.141Z" transform="translate(-149.837 -240.253)" fill="#fbbebe"/>
  <path id="Caminho_39" data-name="Caminho 39" d="M338.423,785.515c-1.111.038-2.407,0-3.094-.879a3.442,3.442,0,0,1-.559-1.714,84.633,84.633,0,0,1-.77-11.677,7.247,7.247,0,0,1,.86-4.115,11.878,11.878,0,0,1,1.984-1.926c1.7-1.573,2.94-3.852,5.135-4.577a5.534,5.534,0,0,1,5.5,1.444,9.174,9.174,0,0,1,2.439,5.386c.321,2.388.051,4.988,1.316,7.061.5.8,1.2,1.457,1.765,2.215,1.926,2.568,3.653,7.594-.321,8.634C348.469,786.465,342.794,785.373,338.423,785.515Z" transform="translate(-167.74 -320.154)" fill="#3f3d56"/>
  <path id="Caminho_40" data-name="Caminho 40" d="M276.708,323.153c2.247-4.339.905-9.924-2.3-13.609s-7.9-5.739-12.691-6.849a33.331,33.331,0,0,0-19.444.873c-4.9,1.881-9.115,5.135-13.635,7.793a62.011,62.011,0,0,1-26.159,8.345c-10.271.867-21.742-.481-29.683,6.06-14.546,11.978-4.417,38.972-17.974,52.041-3.659,3.524-8.544,5.431-12.736,8.3s-7.941,7.459-7.267,12.492a13.587,13.587,0,0,0,3.171,6.509,31.552,31.552,0,0,0,27.995,11.215,33.932,33.932,0,0,0,25.035-17.172c1.284-2.3,2.324-4.827,4.346-6.5,4.051-3.344,9.995-1.99,15.246-2.151,11.677-.359,22.281-10.367,23.3-22.012.436-4.975-.411-10.765,3.165-14.257,2.882-2.825,7.389-2.8,11.33-3.665,7.241-1.586,12.511-6.824,15.817-13.217,1.515-2.94,1.361-6.227,3.608-8.666C270.225,326,274.571,327.274,276.708,323.153Z" transform="translate(-96.39 -155.891)" fill="#3f3d56"/>
  <g id="Grupo_1" data-name="Grupo 1" transform="translate(67.403 145.812)" opacity="0.1">
    <path id="Caminho_41" data-name="Caminho 41" d="M216.971,331.6a62.02,62.02,0,0,0,12.563-2.394c-1.155.16-2.311.3-3.473.392-8.05.674-16.857,0-24.111,2.831C206.893,331.925,212.073,332.015,216.971,331.6Z" transform="translate(-187.86 -311.568)"/>
    <path id="Caminho_42" data-name="Caminho 42" d="M201.948,445.294c-2.022,1.669-3.088,4.2-4.346,6.5A34.215,34.215,0,0,1,180,467.12c.571-.039,1.143-.09,1.714-.16a33.94,33.94,0,0,0,25.035-17.165c1.284-2.3,2.317-4.834,4.346-6.5l.347-.27C207.918,442.938,204.541,443.15,201.948,445.294Z" transform="translate(-180 -352.315)"/>
    <path id="Caminho_43" data-name="Caminho 43" d="M333.4,309.605c-3.21-3.685-7.934-5.732-12.691-6.849a33.356,33.356,0,0,0-19.451.88l-.411.167a37.313,37.313,0,0,1,10.772.956c4.757,1.117,9.488,3.165,12.691,6.856s4.551,9.269,2.3,13.609c-2.138,4.121-6.484,2.837-8.929,5.5-2.247,2.433-2.093,5.726-3.608,8.666-2.844,5.5-7.151,10.136-12.9,12.338,2.009-.475,4.166-.687,6.169-1.123,7.241-1.592,12.511-6.824,15.817-13.217,1.521-2.94,1.367-6.233,3.608-8.666,2.452-2.664,6.8-1.387,8.929-5.5C337.947,318.894,336.606,313.309,333.4,309.605Z" transform="translate(-223.273 -301.727)"/>
    <path id="Caminho_44" data-name="Caminho 44" d="M280.481,380.921c-3.942.86-8.448.841-11.33,3.659-3.576,3.5-2.728,9.289-3.165,14.264-.764,8.7-6.882,16.485-14.8,20.022h.584c11.677-.359,22.275-10.374,23.3-22.012.443-4.981-.4-10.772,3.171-14.264a8.73,8.73,0,0,1,2.837-1.81Z" transform="translate(-205.491 -330.033)"/>
  </g>
  <path id="Caminho_45" data-name="Caminho 45" d="M334.024,402.518a4.694,4.694,0,0,1-2.651,1.759c-10.566,3.89-21.684,7.851-32.828,6.214-.417-1.752-.828-3.511-1.239-5.264q-.892-3.813-1.8-7.626c-.283-1.213-.571-2.439-.8-3.672h0a21.568,21.568,0,0,1-.379-5.919,12.726,12.726,0,0,1,.385-2.125,11.049,11.049,0,0,1,1.63-3.537c.128-.173.263-.347.4-.514h0a8.093,8.093,0,0,1,2.272-1.894c1.894-1.04,4.493-1.483,5.257-3.5a5.443,5.443,0,0,0-.083-3.21c-.642-2.568-1.8-4.981-2.523-7.523-.912-3.21.462-3.011,3.563-3.787,5.585-1.406,11.426-2.414,17.159-1.284a24.64,24.64,0,0,0,.18,8.493c.712,2.76,2.619,5.379,5.36,6.143.4.116.835.186,1.284.282h0a3.886,3.886,0,0,1,1.65.68,2.819,2.819,0,0,1,.783,1.033,7.913,7.913,0,0,1,.546,2.118q1.509,10.1,2.176,20.3v.257A4.617,4.617,0,0,1,334.024,402.518Z" transform="translate(-153.513 -176.835)" fill="#fbbebe"/>
  <path id="Caminho_46" data-name="Caminho 46" d="M266.321,403.8c-2.4,3.653-3.21,8.095-3.941,12.409l-4.66,27.025c-.642,3.7-1.213,7.761.68,11a26.446,26.446,0,0,1,2.009,3.21,17.736,17.736,0,0,1,.693,3.588c1.091,6.195,7.183,10.374,13.294,11.876,2.208.546,4.789.757,6.528-.713,1.926-1.6,1.926-4.641.79-6.837s-3.21-3.749-5.219-5.219l-6.657-4.9L273.69,425.7c.282-2.144,1.284-4.924,3.454-4.686,1.977.212,3.5,3.094,5.257,2.163a2.613,2.613,0,0,0,1.085-1.592,19.426,19.426,0,0,0,.34-7.562l-.8-9.154c-.263-2.972.5-5.2.86-7.992.417-3.255-1.752-2.266-4.429-1.566C274.319,396.676,269.293,399.263,266.321,403.8Z" transform="translate(-140.207 -189.172)" fill="#fbbebe"/>
  <path id="Caminho_47" data-name="Caminho 47" d="M375.855,444.117a4.789,4.789,0,0,1-2.08,1.887,23.675,23.675,0,0,1-17.114,2.407,37.029,37.029,0,0,0-4.07-.95c-2.2-.27-4.429.167-6.644,0-4.494-.34-8.441-3.145-11.555-6.419-1.874-1.926-3.576-5.078-1.83-7.145a4.141,4.141,0,0,1,3.82-1.156,15.192,15.192,0,0,1,3.9,1.451,42.908,42.908,0,0,0,13.6,3.749c3.21.334,7.292-.212,8.4-3.261a8.1,8.1,0,0,0-.218-4.66q-1.554-6.3-3.107-12.614a3.474,3.474,0,0,0-.385-1.046,1.353,1.353,0,0,0-.186-.244,2.908,2.908,0,0,0-1.432-.642,13.351,13.351,0,0,1-6.5-3.312,14.411,14.411,0,0,1-2.645-4.256c-.18-.392-.347-.79-.52-1.188-1.316-3.068-2.7-6.214-3.775-9.436a38.626,38.626,0,0,1-1.65-6.7c-.282-1.971-.437-2.876.642-3.749a6.421,6.421,0,0,1,.918-.578c.494-.263,1.053-.526,1.643-.777l.571-.237a39.409,39.409,0,0,1,5.4-1.72c4.455-1.034,9.212,1.123,12.267,4.532s4.641,7.87,5.655,12.331,1.534,9.032,2.805,13.423c.494,1.72,1.111,3.415,1.534,5.136a49.33,49.33,0,0,1,.969,6.207q.905,7.979,1.8,15.958A5.264,5.264,0,0,1,375.855,444.117Z" transform="translate(-166.964 -185.111)" fill="#fbbebe"/>
  <path id="Caminho_48" data-name="Caminho 48" d="M294.4,465.126c1.284,8.191-2.407,16.247-5.976,23.751a20.243,20.243,0,0,0,6.907,2.844,137.331,137.331,0,0,0,49.557,3.73c.4-2.773.77-5.713-.366-8.268-.706-1.586-1.926-2.876-2.7-4.429-1.284-2.568-1.155-5.553-1.014-8.4l1.149-24.284c-7.966-3.672-17.2-.231-25.966.263-4.538.257-9.135-.3-13.609.507-2.324.417-9.629,1.566-10.727,3.961S294,462.52,294.4,465.126Z" transform="translate(-151.419 -208.431)" fill="#fbbebe"/>
  <path id="Caminho_49" data-name="Caminho 49" d="M294.4,465.126c1.284,8.191-2.407,16.247-5.976,23.751a20.243,20.243,0,0,0,6.907,2.844,137.331,137.331,0,0,0,49.557,3.73c.4-2.773.77-5.713-.366-8.268-.706-1.586-1.926-2.876-2.7-4.429-1.284-2.568-1.155-5.553-1.014-8.4l1.149-24.284c-7.966-3.672-17.2-.231-25.966.263-4.538.257-9.135-.3-13.609.507-2.324.417-9.629,1.566-10.727,3.961S294,462.52,294.4,465.126Z" transform="translate(-151.419 -208.431)" opacity="0.05"/>
  <path id="Caminho_50" data-name="Caminho 50" d="M312.484,508.3c-8.634-1.8-17.12-4.77-25.934-4.975a2.291,2.291,0,0,0-1.284.244,2.317,2.317,0,0,0-.809,1.406q-1.367,4.718-2.446,9.507c-2.388,10.611-3.563,22.333,1.688,31.859a9.439,9.439,0,0,1,4.493-7.7,22.457,22.457,0,0,1,18.038-1.592,12.55,12.55,0,0,1,7.3,10.207l30.331.982a1.11,1.11,0,0,0,1.412-1.213,123.743,123.743,0,0,0-.122-29.279c-.334-2.715-.379-6.483-3.434-7.5-3.646-1.22-9.411.205-13.307.039a98.542,98.542,0,0,1-15.926-1.977Z" transform="translate(-148.4 -228.096)" fill="#3f3d56"/>
  <path id="Caminho_51" data-name="Caminho 51" d="M342.753,418.09l-.1,13.48-30.684,1.021c-5.63.193-11.3.385-16.793,1.637-1.579.359-3.139.809-4.693,1.252-1.618-5.925-3.21-12.132-2.786-18.173h0a23.885,23.885,0,0,1,.847-4.814c.976-3.389,2.805-6.586,3.781-9.937h0a15.2,15.2,0,0,0,.642-4.018,19.509,19.509,0,0,0-.642-4.025,12.332,12.332,0,0,1-.4-3.306l2.433-.751h0c.071.289.128.571.18.867.1.61.186,1.233.244,1.855h0a37.98,37.98,0,0,1,.128,4.641c-.083,3.094-.5,6.541,1.432,8.987,2.51,3.139,7.337,2.651,11.279,1.868l10.322-2.061c3.261-.642,6.9-1.554,8.6-4.41a9.8,9.8,0,0,0,1.117-4.493V397.4a35.461,35.461,0,0,0-1.008-10.136c-.25-1.04-.558-2.067-.905-3.075h1.033a3.886,3.886,0,0,1,1.65.68,2.82,2.82,0,0,1,.783,1.034l.571-.237a89.786,89.786,0,0,0,11.118,26.319,12,12,0,0,1,1.541,3.024,7.989,7.989,0,0,1,.257,1.785A10.362,10.362,0,0,1,342.753,418.09Z" transform="translate(-151.137 -185.442)" fill="#ff6f61"/>
  <circle id="Elipse_4" data-name="Elipse 4" cx="18.616" cy="18.616" r="18.616" transform="translate(140.583 154.615)" fill="#fbbebe"/>
  <path id="Caminho_52" data-name="Caminho 52" d="M266.321,408.607c-2.4,3.653-3.21,8.095-3.941,12.409l-4.66,27.025c-.642,3.7-1.213,7.761.68,11a26.441,26.441,0,0,1,2.009,3.21,17.734,17.734,0,0,1,.693,3.588c1.091,6.195,7.183,10.374,13.294,11.876,2.208.546,4.789.757,6.528-.713,1.926-1.6,1.926-4.641.79-6.837s-3.21-3.749-5.219-5.219l-6.657-4.9,3.852-29.529C273.947,428.391,269.293,404.075,266.321,408.607Z" transform="translate(-140.207 -193.984)" fill="#fbbebe"/>
  <path id="Caminho_53" data-name="Caminho 53" d="M368.967,409.654c1.014,4.462,1.534,9.032,2.805,13.423.494,1.727,1.111,3.415,1.534,5.135a49.243,49.243,0,0,1,.969,6.2l1.8,15.958a5.289,5.289,0,0,1-.225,2.953,4.828,4.828,0,0,1-2.08,1.887,23.752,23.752,0,0,1-17.114,2.407,34.33,34.33,0,0,0-4.07-.95c-2.2-.276-4.429.167-6.644,0-4.494-.34-8.441-3.139-11.555-6.387-1.874-1.926-3.576-5.084-1.83-7.151a4.14,4.14,0,0,1,3.82-1.155,15.212,15.212,0,0,1,3.9,1.457,43.06,43.06,0,0,0,13.6,3.742c3.21.34,7.292-.205,8.4-3.261a8.1,8.1,0,0,0-.218-4.66l-3.107-12.614C358.831,426.2,367.953,405.2,368.967,409.654Z" transform="translate(-166.964 -194.338)" fill="#fbbebe"/>
  <path id="Caminho_54" data-name="Caminho 54" d="M295.613,338.249c-.828-2.972-1.99-6.689.34-8.7a5.4,5.4,0,0,1,2.9-1.111c5.232-.642,10.643,2.439,15.65.8a8.7,8.7,0,0,0,1.663-15.8c-2.189-1.284-4.8-1.534-7.324-1.759-6.644-.61-13.57-1.175-19.784,1.284s-11.452,8.788-10.168,15.342c.6,3.126,2.529,5.816,4.494,8.307,1.509,1.894,7.562,10.913,9.995,10.784C296.807,347.191,296.153,340.182,295.613,338.249Z" transform="translate(-147.937 -159.286)" fill="#3f3d56"/>
  <path id="Caminho_55" data-name="Caminho 55" d="M322.862,314.389a8.7,8.7,0,0,0-1.155-.559,8.692,8.692,0,0,1-3.146,14.7c-5.007,1.643-10.419-1.438-15.65-.8a5.4,5.4,0,0,0-2.9,1.111c-2.33,2.016-1.168,5.732-.34,8.7.539,1.926,1.194,8.942-2.221,9.135h-.058c1.059,1.034,2.016,1.708,2.7,1.669,3.415-.193,2.76-7.2,2.221-9.135-.828-2.972-1.99-6.689.34-8.7a5.4,5.4,0,0,1,2.9-1.111c5.232-.642,10.643,2.439,15.65.8a8.7,8.7,0,0,0,1.663-15.8Z" transform="translate(-154.631 -160.248)" opacity="0.1"/>
  <rect id="Retângulo_15" data-name="Retângulo 15" width="209.269" height="64.835" transform="translate(232.379 385.71)" fill="#3f3d56"/>
  <path id="Caminho_56" data-name="Caminho 56" d="M586,708.08V731l17.974-11.458Z" transform="translate(-257.973 -301.417)" fill="#fff"/>
  <path id="Caminho_57" data-name="Caminho 57" d="M294.478,96.483l-9.963,6.317,6.047-11a9.847,9.847,0,0,0-6.028-2.15h-.161a11.655,11.655,0,0,1-2.067-.154l-3.377,2.138L280.382,89a11.953,11.953,0,0,1-5.906-4.494l-6.047,3.852,3.819-6.939c-3.537-4.243-8.3-6.843-13.538-6.843-6.284,0-11.882,3.736-15.5,9.558a11.555,11.555,0,0,1-10.271,5.521h-.34c-6.939,0-12.563,7.864-12.563,17.57s5.623,17.57,12.563,17.57a9.456,9.456,0,0,0,4.378-1.1,18.1,18.1,0,0,1,15.2-.3,15.83,15.83,0,0,0,12.929,0,18.134,18.134,0,0,1,15.072.3,9.4,9.4,0,0,0,4.327,1.072c6.939,0,12.563-7.87,12.563-17.57A22.281,22.281,0,0,0,294.478,96.483Z" transform="translate(-126.934 -74.58)" fill="#f2f2f2"/>
  <path id="Caminho_58" data-name="Caminho 58" d="M275.72,134.961a18.545,18.545,0,0,0-10.746,1.168,15.862,15.862,0,0,1-12.929,0,18.115,18.115,0,0,0-15.2.3,9.468,9.468,0,0,1-4.378,1.091c-6.163,0-11.292-6.207-12.357-14.4a11.992,11.992,0,0,0,3.081-3.319c3.614-5.829,9.212-9.565,15.5-9.565s11.812,3.691,15.406,9.456a11.882,11.882,0,0,0,10.239,5.591h.161C269.4,125.287,273.653,129.222,275.72,134.961Z" transform="translate(-126.959 -87.349)" opacity="0.03"/>
  <path id="Caminho_59" data-name="Caminho 59" d="M846.3,325.66l-4.969,3.152,3.017-5.489a4.923,4.923,0,0,0-3-1.072h-.083a6.056,6.056,0,0,1-1.027-.071l-1.714,1.078.725-1.316a5.969,5.969,0,0,1-2.946-2.234l-3.017,1.926,1.926-3.46a8.821,8.821,0,0,0-6.753-3.415,9.18,9.18,0,0,0-7.7,4.77,5.777,5.777,0,0,1-5.135,2.754h-.167c-3.46,0-6.265,3.929-6.265,8.762s2.805,8.769,6.265,8.769a4.717,4.717,0,0,0,2.183-.546,9.039,9.039,0,0,1,7.581-.154,7.87,7.87,0,0,0,3.21.7,8.043,8.043,0,0,0,3.21-.68,9.058,9.058,0,0,1,7.517.141,4.666,4.666,0,0,0,2.157.539c3.46,0,6.265-3.929,6.265-8.769a11.1,11.1,0,0,0-1.271-5.386Z" transform="translate(-337.887 -160.581)" fill="#f2f2f2"/>
  <path id="Caminho_60" data-name="Caminho 60" d="M836.912,344.845a9.193,9.193,0,0,0-5.367.584,7.883,7.883,0,0,1-6.419,0,9.064,9.064,0,0,0-7.581.148,4.705,4.705,0,0,1-2.183.552c-3.075,0-5.63-3.1-6.163-7.183a5.915,5.915,0,0,0,1.534-1.656,8.629,8.629,0,0,1,15.406-.058,5.919,5.919,0,0,0,5.135,2.805h.077C833.76,340.018,835.885,341.982,836.912,344.845Z" transform="translate(-337.895 -166.94)" opacity="0.03"/>
  <path id="Caminho_61" data-name="Caminho 61" d="M882.945,194.44l7.979,5.065-4.853-8.814a7.909,7.909,0,0,1,4.827-1.72h.128a9.406,9.406,0,0,0,1.656-.122l2.709,1.714-1.162-2.106a9.667,9.667,0,0,0,4.731-3.595l4.846,3.068-3.062-5.559a14.161,14.161,0,0,1,10.849-5.482c5.039,0,9.52,2.991,12.415,7.658a9.276,9.276,0,0,0,8.21,4.423h.269c5.559,0,10.065,6.3,10.065,14.078s-4.493,14.078-10.065,14.078a7.582,7.582,0,0,1-3.5-.879,14.5,14.5,0,0,0-12.2-.238,12.691,12.691,0,0,1-10.354,0,14.521,14.521,0,0,0-12.075.231,7.612,7.612,0,0,1-3.473.86c-5.559,0-10.066-6.3-10.066-14.078a17.906,17.906,0,0,1,2.125-8.583Z" transform="translate(-363.539 -111.214)" fill="#f2f2f2"/>
  <path id="Caminho_62" data-name="Caminho 62" d="M907.56,225.263a14.854,14.854,0,0,1,8.627.937,12.691,12.691,0,0,0,10.354,0,14.527,14.527,0,0,1,12.2.244,7.576,7.576,0,0,0,3.505.873c4.936,0,9.045-4.975,9.9-11.555a9.347,9.347,0,0,1-2.471-2.664c-2.9-4.66-7.382-7.658-12.415-7.658s-9.469,2.959-12.364,7.575a9.52,9.52,0,0,1-8.2,4.494h-.128C912.625,217.515,909.216,220.667,907.56,225.263Z" transform="translate(-373.114 -121.437)" opacity="0.03"/>
</svg>
