<svg xmlns="http://www.w3.org/2000/svg" width="44.252" height="44.252" viewBox="0 0 44.252 44.252">
  <path id="whatsapp-brands" d="M37.624,38.43A21.935,21.935,0,0,0,3.111,64.892L0,76.252,11.626,73.2a21.861,21.861,0,0,0,10.48,2.667h.01A21.789,21.789,0,0,0,37.624,38.43ZM22.116,72.172a18.194,18.194,0,0,1-9.285-2.539l-.662-.4L5.275,71.046l1.837-6.727-.435-.691a18.261,18.261,0,1,1,33.87-9.69A18.43,18.43,0,0,1,22.116,72.172Zm10-13.651c-.543-.277-3.24-1.6-3.744-1.778s-.869-.277-1.235.277S25.721,58.8,25.4,59.173s-.642.415-1.185.138c-3.22-1.61-5.334-2.874-7.458-6.519-.563-.968.563-.9,1.61-2.993a1.015,1.015,0,0,0-.049-.958c-.138-.277-1.235-2.973-1.689-4.07-.444-1.067-.9-.919-1.235-.938-.316-.02-.682-.02-1.047-.02a2.03,2.03,0,0,0-1.462.682,6.157,6.157,0,0,0-1.916,4.573c0,2.7,1.966,5.3,2.232,5.67s3.862,5.9,9.364,8.277c3.477,1.5,4.84,1.63,6.578,1.373,1.057-.158,3.24-1.324,3.694-2.608a4.583,4.583,0,0,0,.316-2.608C33.021,58.926,32.655,58.788,32.112,58.521Z" transform="translate(0 -32)" fill="#fff"/>
</svg>
